<mxfile host="app.diagrams.net" modified="2023-04-10T17:49:56.720Z" agent="Mozilla/5.0 (Windows NT 10.0; Win64; x64) AppleWebKit/537.36 (KHTML, like Gecko) Chrome/111.0.0.0 Safari/537.36" etag="oVbyO2Z9HMAv1XAcxTd5" version="21.1.5" type="device">
  <diagram name="PÃ¡gina-1" id="Hocl8ViPu-Z_h3uzNcSd">
    <mxGraphModel dx="393" dy="608" grid="1" gridSize="10" guides="1" tooltips="1" connect="1" arrows="1" fold="1" page="1" pageScale="1" pageWidth="827" pageHeight="1169" math="0" shadow="0">
      <root>
        <mxCell id="0" />
        <mxCell id="1" parent="0" />
        <mxCell id="wzgLcNdPqHr-y2vJIOCL-6" style="edgeStyle=orthogonalEdgeStyle;rounded=0;orthogonalLoop=1;jettySize=auto;html=1;exitX=0.5;exitY=1;exitDx=0;exitDy=0;exitPerimeter=0;entryX=0.5;entryY=0;entryDx=0;entryDy=0;entryPerimeter=0;" edge="1" parent="1" source="wzgLcNdPqHr-y2vJIOCL-1" target="wzgLcNdPqHr-y2vJIOCL-2">
          <mxGeometry relative="1" as="geometry" />
        </mxCell>
        <mxCell id="wzgLcNdPqHr-y2vJIOCL-1" value="Inicio" style="strokeWidth=2;html=1;shape=mxgraph.flowchart.start_1;whiteSpace=wrap;" vertex="1" parent="1">
          <mxGeometry x="364" y="40" width="100" height="60" as="geometry" />
        </mxCell>
        <mxCell id="wzgLcNdPqHr-y2vJIOCL-7" style="edgeStyle=orthogonalEdgeStyle;rounded=0;orthogonalLoop=1;jettySize=auto;html=1;exitX=0.5;exitY=1;exitDx=0;exitDy=0;exitPerimeter=0;" edge="1" parent="1" source="wzgLcNdPqHr-y2vJIOCL-2" target="wzgLcNdPqHr-y2vJIOCL-3">
          <mxGeometry relative="1" as="geometry" />
        </mxCell>
        <mxCell id="wzgLcNdPqHr-y2vJIOCL-2" value="&quot;Informe o saldo&quot;" style="strokeWidth=2;html=1;shape=mxgraph.flowchart.display;whiteSpace=wrap;" vertex="1" parent="1">
          <mxGeometry x="364" y="150" width="100" height="60" as="geometry" />
        </mxCell>
        <mxCell id="wzgLcNdPqHr-y2vJIOCL-8" style="edgeStyle=orthogonalEdgeStyle;rounded=0;orthogonalLoop=1;jettySize=auto;html=1;exitX=0.5;exitY=1;exitDx=0;exitDy=0;entryX=0.5;entryY=0;entryDx=0;entryDy=0;" edge="1" parent="1" source="wzgLcNdPqHr-y2vJIOCL-3" target="wzgLcNdPqHr-y2vJIOCL-4">
          <mxGeometry relative="1" as="geometry" />
        </mxCell>
        <mxCell id="wzgLcNdPqHr-y2vJIOCL-3" value="saldo" style="html=1;strokeWidth=2;shape=manualInput;whiteSpace=wrap;rounded=1;size=26;arcSize=11;" vertex="1" parent="1">
          <mxGeometry x="364" y="240" width="100" height="60" as="geometry" />
        </mxCell>
        <mxCell id="wzgLcNdPqHr-y2vJIOCL-9" style="edgeStyle=orthogonalEdgeStyle;rounded=0;orthogonalLoop=1;jettySize=auto;html=1;exitX=0.5;exitY=1;exitDx=0;exitDy=0;entryX=0.5;entryY=0;entryDx=0;entryDy=0;entryPerimeter=0;" edge="1" parent="1" source="wzgLcNdPqHr-y2vJIOCL-4" target="wzgLcNdPqHr-y2vJIOCL-5">
          <mxGeometry relative="1" as="geometry" />
        </mxCell>
        <mxCell id="wzgLcNdPqHr-y2vJIOCL-4" value="saldo = saldo * 0,005" style="rounded=1;whiteSpace=wrap;html=1;absoluteArcSize=1;arcSize=14;strokeWidth=2;" vertex="1" parent="1">
          <mxGeometry x="351" y="360" width="126" height="60" as="geometry" />
        </mxCell>
        <mxCell id="wzgLcNdPqHr-y2vJIOCL-11" style="edgeStyle=orthogonalEdgeStyle;rounded=0;orthogonalLoop=1;jettySize=auto;html=1;exitX=0.5;exitY=1;exitDx=0;exitDy=0;exitPerimeter=0;entryX=0.5;entryY=0;entryDx=0;entryDy=0;entryPerimeter=0;" edge="1" parent="1" source="wzgLcNdPqHr-y2vJIOCL-5" target="wzgLcNdPqHr-y2vJIOCL-10">
          <mxGeometry relative="1" as="geometry" />
        </mxCell>
        <mxCell id="wzgLcNdPqHr-y2vJIOCL-5" value="&quot;Novo saldo = &quot;, saldo" style="strokeWidth=2;html=1;shape=mxgraph.flowchart.display;whiteSpace=wrap;" vertex="1" parent="1">
          <mxGeometry x="349" y="470" width="130" height="60" as="geometry" />
        </mxCell>
        <mxCell id="wzgLcNdPqHr-y2vJIOCL-10" value="Fim" style="strokeWidth=2;html=1;shape=mxgraph.flowchart.terminator;whiteSpace=wrap;" vertex="1" parent="1">
          <mxGeometry x="364" y="585" width="100" height="60" as="geometry" />
        </mxCell>
      </root>
    </mxGraphModel>
  </diagram>
</mxfile>
